<svg width="157" height="43" viewBox="0 0 157 43" fill="none" xmlns="http://www.w3.org/2000/svg">
<path d="M143.824 42.151V19.2173H150.836C152.718 19.2173 154.085 19.6779 154.938 20.5992C155.8 21.5106 156.231 23.02 156.231 25.1271V25.6269C156.231 26.8422 156.011 27.8272 155.57 28.5819C155.139 29.3365 154.477 29.8315 153.585 30.0667C154.36 30.2627 154.957 30.6351 155.379 31.184C155.81 31.723 156.109 32.3845 156.276 33.1686C156.442 33.9527 156.525 34.8053 156.525 35.7266C156.525 36.5009 156.437 37.2702 156.261 38.0347C156.094 38.7893 155.8 39.4803 155.379 40.1075C154.967 40.725 154.389 41.2199 153.644 41.5923C152.909 41.9648 151.973 42.151 150.836 42.151H143.824ZM148.881 28.229H149.939C150.42 28.229 150.728 28.0428 150.866 27.6704C151.003 27.298 151.071 26.852 151.071 26.3326V24.7596C151.071 23.9265 150.704 23.51 149.969 23.51H148.881V28.229ZM149.395 37.8877C150.738 37.8877 151.409 37.2506 151.409 35.9765V34.6534C151.409 33.9184 151.297 33.3401 151.071 32.9187C150.856 32.4875 150.444 32.2718 149.836 32.2718H148.881V37.8583C148.959 37.8681 149.043 37.8779 149.131 37.8877C149.229 37.8877 149.317 37.8877 149.395 37.8877Z" fill="#018ABE"/>
<path d="M128.505 42.151L131.004 19.2173H139.781L142.236 42.151H137.341L137.002 37.9759H133.827L133.533 42.151H128.505ZM135.209 23.3336L134.253 33.8449H136.517L135.444 23.3336H135.209Z" fill="#018ABE"/>
<path d="M117.244 42.151V16.277H122.419V37.7406H127.741V42.151H117.244Z" fill="#018ABE"/>
<path d="M105.277 42.151V19.2173H110.452V37.7406H115.774V42.151H105.277Z" fill="white"/>
<path d="M93.3108 42.151V19.2173H98.4855V37.7406H103.807V42.151H93.3108Z" fill="white"/>
<path d="M86.2542 42.151V19.2173H91.2526V42.151H86.2542Z" fill="white"/>
<path d="M72.2588 42.151V19.2173H77.3748V28.626L79.7858 19.2173H84.9899L82.0497 30.1108L85.5927 42.151H80.2268L77.4042 31.6103V42.151H72.2588Z" fill="white"/>
<path d="M64.4966 42.3862C62.1346 42.3862 60.4293 41.7981 59.3806 40.6221C58.3418 39.446 57.8223 37.574 57.8223 35.0062V32.4777H62.9383V35.7119C62.9383 36.3097 63.0265 36.7802 63.2029 37.1232C63.3891 37.4564 63.7077 37.623 64.1585 37.623C64.6289 37.623 64.9524 37.4858 65.1288 37.2114C65.315 36.937 65.4081 36.4862 65.4081 35.8589C65.4081 35.065 65.3297 34.4035 65.1729 33.8743C65.0161 33.3352 64.7416 32.8256 64.3496 32.3453C63.9674 31.8553 63.4332 31.2869 62.7472 30.64L60.4244 28.4349C58.6897 26.7981 57.8223 24.9262 57.8223 22.819C57.8223 20.6139 58.332 18.933 59.3512 17.7766C60.3803 16.6201 61.8651 16.0418 63.8057 16.0418C66.1774 16.0418 67.8583 16.674 68.8481 17.9383C69.8478 19.2026 70.3477 21.1235 70.3477 23.7011H65.0847V21.9223C65.0847 21.5694 64.9818 21.295 64.7759 21.099C64.5799 20.903 64.3104 20.805 63.9674 20.805C63.5558 20.805 63.2519 20.9226 63.0559 21.1578C62.8697 21.3832 62.7766 21.6773 62.7766 22.0399C62.7766 22.4025 62.8746 22.7945 63.0706 23.216C63.2666 23.6374 63.6538 24.1225 64.232 24.6714L67.2163 27.5381C67.8142 28.1065 68.363 28.7093 68.8628 29.3463C69.3627 29.9736 69.7645 30.7086 70.0683 31.5515C70.3722 32.3845 70.5241 33.4038 70.5241 34.6093C70.5241 37.0399 70.0732 38.9461 69.1716 40.328C68.2797 41.7001 66.7214 42.3862 64.4966 42.3862Z" fill="white"/>
<path d="M13.0574 17.0793C10.8052 17.0793 8.97911 15.2532 8.97911 13.001C8.97911 10.7488 10.8052 8.92267 13.0574 8.92267L25.3209 8.84141L31.5119 0H12.9607C5.80268 0 0 5.80268 0 12.9607C0 20.1186 5.80268 25.9213 12.9607 25.9213L13.3533 25.9294L19.5492 17.0805L13.0574 17.0793Z" fill="#018ABE"/>
<path d="M39.6313 25.9207C41.8835 25.9207 43.7096 27.7468 43.7096 29.999C43.7096 32.2512 41.8835 34.0773 39.6313 34.0773L35.8873 34.1586L29.6963 43H39.728C46.886 43 52.6887 37.1973 52.6887 30.0393C52.6887 22.8813 46.886 17.0787 39.728 17.0787L36.6006 17.0694L30.4041 25.9188L39.6313 25.9201V25.9207Z" fill="#018ABE"/>
<path d="M45.4302 0.000619935L34.6368 0L4.56337 43H15.3574H26.5974L32.7884 34.158L21.567 34.1214L45.4302 0.000619935Z" fill="white"/>
</svg>
